{"title":"Elysium.2013.CAM.XviD-TANGiNA","uid":8809206,"size":1197272286,"categoryP":"video","categoryS":"movies","magnet":"?xt=urn:btih:0cdf7fd43d23c4c1490ae23d3cecbe950c2a1348&amp;dn=Elysium.2013.CAM.XviD-TANGiNA&amp;tr=udp%3A%2F%2Ftracker.openbittorrent.com%3A80&amp;tr=udp%3A%2F%2Fopen.demonii.com%3A1337&amp;tr=udp%3A%2F%2Ftracker.coppersurfer.tk%3A6969&amp;tr=udp%3A%2F%2Fexodus.desync.com%3A6969","seeders":19,"leechers":2,"uploader":"xxxlavalxxx","files":-1,"time":1376416436,"description":" &lt;a href=&quot;http://www.imdb.com/title/tt1535108/&quot; rel=&quot;nofollow&quot; target=&quot;_NEW&quot;&gt;http://www.imdb.com/title/tt1535108/&lt;/a&gt;\n\n\n\n Set in the year 2154, where the very wealthy live on a man-made space station while the rest of the population resides on a ruined Earth, a man takes on a mission that could bring equality to the polarized worlds.\n\n\n\n Director:\n Neill Blomkamp\n\n Writer:\n Neill Blomkamp\n\n Stars:\n Matt Damon, Jodie Foster, Sharlto Copley\n\n Genres:\n Action | Drama | Sci-Fi | Thriller\n\n Country:\n USA\n\n Language:\n English\n\n\n\n\n General\n Complete name : Elysium.2013.CAM.XviD-TANGiNA\n Format : AVI\n Format/Info : Audio Video Interleave\n File size : 1.11 GiB\n Duration : 1h 36mn\n Overall bit rate : 1 634 Kbps\n Writing application : VirtualDubMod 1.5.10.2 (build 2542/release)\n Writing library : VirtualDubMod build 2542/release\n\n Video\n ID : 0\n Format : MPEG-4 Visual\n Format profile : Advanced Simple@L5\n Format settings, BVOP : 2\n Format settings, QPel : No\n Format settings, GMC : No warppoints\n Format settings, Matrix : Default (H.263)\n Codec ID : XVID\n Codec ID/Hint : XviD\n Duration : 1h 36mn\n Bit rate : 1 497 Kbps\n Width : 720 pixels\n Height : 264 pixels\n Display aspect ratio : 2.727\n Frame rate : 24.000 fps\n Color space : YUV\n Chroma subsampling : 4:2:0\n Bit depth : 8 bits\n Scan type : Progressive\n Compression mode : Lossy\n Bits/(Pixel*Frame) : 0.328\n Stream size : 1.01 GiB (92%)\n Writing library : XviD 1.2.1 (UTC 2008-12-04)\n\n Audio\n ID : 1\n Format : MPEG Audio\n Format version : Version 1\n Format profile : Layer 3\n Codec ID : 55\n Codec ID/Hint : MP3\n Duration : 1h 36mn\n Bit rate mode : Constant\n Bit rate : 128 Kbps\n Channel(s) : 2 channels\n Sampling rate : 44.1 KHz\n Compression mode : Lossy\n Stream size : 88.8 MiB (8%)\n Alignment : Split accross interleaves\n Interleave, duration : 42 ms (1.00 video frame)\n Interleave, preload duration : 500 ms\n\n\n Sources : Elizium.Rai.ne.na.zemle.2013.D.CAMRip.1400MB/ELYSIUM FULL CAM AUDIO ONLY ENGLISH-NOGRP (THANKS)\n\n\n\n &lt;a href=&quot;\nhttp://bayimg.com/OaoPMaaEE&quot; rel=&quot;nofollow&quot; target=&quot;_NEW&quot;&gt;\nhttp://bayimg.com/OaoPMaaEE&lt;/a&gt; &lt;a href=&quot;\nhttp://bayimg.com/oaopoaAeE&quot; rel=&quot;nofollow&quot; target=&quot;_NEW&quot;&gt;\nhttp://bayimg.com/oaopoaAeE&lt;/a&gt;\n","torrent":{"xt":"urn:btih:0cdf7fd43d23c4c1490ae23d3cecbe950c2a1348","amp;dn":"Elysium.2013.CAM.XviD-TANGiNA","amp;tr":["udp%3A%2F%2Ftracker.openbittorrent.com%3A80","udp%3A%2F%2Fopen.demonii.com%3A1337","udp%3A%2F%2Ftracker.coppersurfer.tk%3A6969","udp%3A%2F%2Fexodus.desync.com%3A6969"],"infoHash":"0cdf7fd43d23c4c1490ae23d3cecbe950c2a1348","infoHashBuffer":{"type":"Buffer","data":[12,223,127,212,61,35,196,193,73,10,226,61,60,236,190,149,12,42,19,72]},"announce":[],"urlList":[]}}